<?xml version="1.0" standalone="no"?>
<!DOCTYPE svg PUBLIC "-//W3C//DTD SVG 20010904//EN"
 "http://www.w3.org/TR/2001/REC-SVG-20010904/DTD/svg10.dtd">
<svg version="1.0" xmlns="http://www.w3.org/2000/svg"
 width="1024.000000pt" height="1024.000000pt" viewBox="0 0 1024.000000 1024.000000"
 preserveAspectRatio="xMidYMid meet">

<g transform="translate(0.000000,1024.000000) scale(0.100000,-0.100000)"
fill="#000000" stroke="none">
<path d="M1030 6480 c-224 -29 -398 -173 -477 -395 l-28 -80 0 -875 c0 -805 1
-880 18 -940 56 -209 203 -359 407 -417 63 -17 218 -18 4160 -18 3924 0 4098
1 4173 18 211 50 355 182 419 387 l23 75 0 880 c0 810 -1 885 -18 945 -30 111
-74 189 -151 266 -74 74 -136 110 -241 141 -57 17 -259 18 -4145 19 -2247 1
-4110 -2 -4140 -6z m7231 -763 c128 -86 147 -358 28 -407 -92 -38 -220 100
-236 254 -7 65 23 138 65 161 41 22 104 19 143 -8z m498 -2 c63 -54 76 -151
31 -252 -58 -131 -165 -189 -238 -128 -86 73 -58 310 46 380 51 35 119 34 161
0z m-5802 -140 c28 -8 62 -24 77 -36 34 -26 73 -94 81 -141 7 -36 6 -37 -32
-47 -98 -27 -98 -27 -111 16 -17 56 -45 78 -98 78 -56 0 -85 -27 -91 -86 -6
-64 20 -98 123 -161 168 -103 234 -186 234 -299 0 -132 -86 -223 -232 -244
-76 -11 -175 23 -226 79 -36 39 -72 120 -72 161 0 6 29 17 64 23 84 16 86 16
86 -10 0 -38 38 -88 78 -105 52 -21 99 -8 129 36 50 74 20 129 -119 216 -165
102 -218 168 -218 271 0 76 16 126 58 174 67 79 165 106 269 75z m2104 -12
c119 -53 176 -174 186 -393 15 -334 -92 -515 -302 -514 -144 1 -236 81 -281
247 -36 128 -27 374 16 491 61 161 230 236 381 169z m-3417 -23 c120 -46 182
-139 207 -310 26 -182 -8 -361 -86 -448 -72 -80 -119 -95 -307 -100 l-158 -4
-2 438 c-2 242 -1 443 1 448 2 5 67 6 145 4 114 -5 153 -10 200 -28z m780
-402 c58 -238 106 -439 106 -446 0 -10 -18 -12 -72 -10 l-73 3 -24 103 -25
102 -107 0 -107 0 -20 -77 c-12 -43 -24 -90 -28 -105 -6 -27 -8 -28 -81 -28
-66 0 -74 2 -69 18 3 9 53 209 112 445 l106 427 88 0 87 0 107 -432z m1006
252 l0 -180 115 0 115 0 0 180 0 180 75 0 75 0 0 -445 0 -445 -75 0 -75 0 0
195 0 195 -115 0 -115 0 0 -195 0 -195 -75 0 -75 0 0 445 0 445 75 0 75 0 0
-180z m935 151 c27 -12 58 -29 69 -39 84 -75 71 -287 -21 -331 -35 -17 -43
-31 -16 -31 29 0 98 -83 113 -134 28 -102 -6 -222 -81 -275 -55 -41 -115 -51
-294 -51 l-155 0 0 446 0 447 168 -5 c144 -4 174 -8 217 -27z m1397 -136 c55
-234 169 -696 175 -712 4 -10 -12 -13 -70 -13 -84 0 -77 -6 -97 85 -6 28 -15
67 -21 88 l-10 37 -108 0 -109 0 -16 -67 c-10 -38 -21 -85 -27 -105 l-10 -38
-73 0 -74 0 110 437 c60 240 111 440 114 445 3 5 44 7 92 6 l86 -3 38 -160z
m617 155 c143 -24 205 -93 218 -240 9 -109 -28 -196 -100 -235 -20 -11 -37
-25 -37 -31 0 -6 32 -91 70 -188 39 -98 70 -179 70 -182 0 -3 -37 -4 -81 -2
l-82 3 -62 170 -61 170 -48 -1 -47 0 -2 -169 -2 -170 -77 -3 -78 -3 0 446 0
445 128 0 c70 0 156 -5 191 -10z m737 -30 c127 -65 174 -159 182 -367 9 -257
-44 -382 -190 -449 -59 -26 -73 -29 -215 -32 l-153 -4 0 447 0 447 154 -3
c152 -4 153 -4 222 -39z m835 -120 c77 -40 136 -161 127 -261 -6 -59 -28 -95
-73 -116 -95 -46 -248 82 -261 219 -9 95 55 178 139 178 15 0 46 -9 68 -20z
m1066 -29 c55 -25 83 -79 83 -156 0 -63 -17 -104 -64 -153 -71 -76 -188 -102
-240 -53 -90 85 -31 303 99 362 50 23 70 23 122 0z m-477 -159 c45 -22 73 -65
105 -163 17 -51 43 -100 73 -140 137 -179 154 -218 131 -302 -16 -59 -42 -92
-91 -111 -53 -22 -98 -15 -197 31 -129 58 -145 60 -242 22 -57 -23 -100 -33
-135 -32 -108 1 -190 83 -201 201 -8 90 7 122 90 190 40 32 93 87 119 122 75
102 140 172 173 186 43 19 133 17 175 -4z"/>
<path d="M4890 5433 c-71 -36 -107 -173 -97 -363 10 -175 43 -250 120 -271 36
-9 47 -8 83 9 71 35 104 132 104 312 0 155 -26 256 -78 303 -30 27 -90 32
-132 10z"/>
<path d="M1450 5126 c0 -196 4 -307 10 -311 19 -12 120 7 153 29 18 11 43 43
57 71 21 42 25 67 28 170 7 192 -20 275 -103 322 -27 16 -57 23 -92 23 l-53 0
0 -304z"/>
<path d="M2191 5218 c-18 -95 -35 -179 -38 -185 -3 -10 15 -13 72 -13 75 0 77
1 73 23 -3 12 -17 83 -32 157 -15 74 -30 148 -34 163 -5 21 -15 -14 -41 -145z"/>
<path d="M4140 5316 l0 -116 43 0 c64 1 120 17 140 41 27 34 23 120 -7 156
-21 25 -31 28 -100 31 l-76 4 0 -116z"/>
<path d="M4140 4943 l0 -133 48 0 c74 1 125 16 148 46 29 36 38 95 21 137 -24
56 -49 70 -137 76 l-80 6 0 -132z"/>
<path d="M5620 5358 c-1 -18 -16 -102 -34 -185 l-33 -153 79 0 c72 0 79 2 74
18 -15 47 -56 242 -62 294 -7 62 -24 79 -24 26z"/>
<path d="M6220 5305 c0 -69 0 -128 0 -132 1 -12 134 -7 159 6 55 30 77 120 45
186 -21 44 -67 65 -143 65 l-61 0 0 -125z"/>
<path d="M6900 5127 l0 -313 63 6 c74 8 98 19 130 63 41 55 52 103 52 237 -1
143 -14 202 -57 254 -30 37 -101 66 -160 66 l-28 0 0 -313z"/>
</g>
</svg>
