<?xml version="1.0" standalone="no"?>
<!DOCTYPE svg PUBLIC "-//W3C//DTD SVG 20010904//EN"
 "http://www.w3.org/TR/2001/REC-SVG-20010904/DTD/svg10.dtd">
<svg version="1.0" xmlns="http://www.w3.org/2000/svg"
 width="1024.000000pt" height="1024.000000pt" viewBox="0 0 1024.000000 1024.000000"
 preserveAspectRatio="xMidYMid meet">

<g transform="translate(0.000000,1024.000000) scale(0.100000,-0.100000)"
fill="#000000" stroke="none">
<path d="M1849 8516 c-165 -59 -241 -234 -170 -388 10 -24 165 -217 343 -429
513 -613 1309 -1565 1478 -1769 85 -103 290 -348 455 -545 165 -197 310 -372
322 -389 l23 -30 0 -1524 c0 -1114 3 -1535 11 -1563 37 -121 180 -185 287
-126 23 12 183 137 354 279 172 141 453 370 623 510 253 206 314 261 333 298
l22 44 0 1036 1 1035 130 155 c72 85 557 666 1077 1290 520 624 1046 1256
1169 1403 123 147 235 283 248 303 64 95 51 232 -33 325 -24 27 -63 60 -86 72
l-41 22 -3255 2 c-2644 2 -3262 0 -3291 -11z m5994 -508 c-11 -13 -551 -660
-1200 -1438 -676 -811 -1185 -1430 -1191 -1449 -9 -25 -12 -295 -12 -1040 l0
-1007 -197 -159 c-109 -88 -251 -204 -315 -257 -65 -54 -120 -98 -123 -98 -2
0 -6 577 -7 1283 -3 1261 -3 1282 -23 1312 -33 50 -163 209 -555 680 -407 487
-1686 2008 -1781 2117 -33 36 -59 69 -59 72 0 3 1234 6 2742 6 l2741 0 -20
-22z"/>
</g>
</svg>
