<?xml version="1.0" standalone="no"?>
<!DOCTYPE svg PUBLIC "-//W3C//DTD SVG 20010904//EN"
 "http://www.w3.org/TR/2001/REC-SVG-20010904/DTD/svg10.dtd">
<svg version="1.0" xmlns="http://www.w3.org/2000/svg"
 width="600.000000pt" height="120.000000pt" viewBox="0 0 600.000000 120.000000"
 preserveAspectRatio="xMidYMid meet">

<g transform="translate(0.000000,120.000000) scale(0.100000,-0.100000)"
fill="#000000" stroke="none">
<path d="M1438 827 c-76 -42 -108 -86 -108 -148 0 -40 7 -56 46 -108 72 -96
70 -152 -7 -192 -23 -11 -39 -22 -37 -24 2 -2 41 -25 87 -50 64 -35 90 -45
110 -40 47 11 117 64 139 104 38 67 28 121 -39 207 -51 67 -52 103 -4 151 19
19 35 36 35 38 0 5 -150 95 -158 95 -4 0 -33 -15 -64 -33z"/>
<path d="M3591 813 c-9 -35 -113 -456 -126 -511 -6 -23 -6 -23 102 -20 l108 3
26 99 25 100 60 -97 c32 -53 62 -96 67 -94 4 1 34 42 66 91 45 67 60 84 64 70
3 -11 13 -54 22 -96 l17 -78 119 0 c65 0 119 1 119 3 0 2 -7 26 -14 53 -30 99
-86 433 -86 506 0 4 -35 8 -79 8 l-79 0 -12 -32 c-21 -56 -113 -218 -119 -212
-3 3 -29 58 -57 122 l-51 117 -81 3 -81 3 -10 -38z"/>
<path d="M2751 683 c-19 -65 -37 -124 -40 -130 -4 -7 -31 39 -61 105 -29 64
-54 118 -55 119 -1 1 -44 -12 -96 -29 l-96 -31 106 -219 106 -218 101 0 101 0
33 103 c17 56 54 158 81 226 27 68 48 125 47 126 -7 4 -181 65 -187 65 -4 0
-22 -53 -40 -117z"/>
<path d="M1830 539 c-52 -133 -96 -245 -98 -250 -2 -5 39 -9 91 -9 l94 0 12
40 12 40 84 0 85 0 16 -40 16 -40 100 0 c55 0 98 4 96 9 -1 5 -54 117 -117
250 l-115 241 -91 0 -91 0 -94 -241z m216 -36 c-2 -3 -15 -3 -28 -1 -24 3 -24
4 -10 38 l14 35 14 -34 c8 -19 12 -36 10 -38z"/>
<path d="M3050 530 l0 -250 173 0 173 0 12 58 c7 32 12 62 12 68 0 5 -36 8
-85 6 l-85 -3 0 25 c0 26 1 26 74 26 l73 0 6 38 c4 20 9 51 12 67 l7 30 -86
-4 -86 -3 0 32 0 31 85 -3 c56 -2 85 1 85 8 0 6 -5 36 -11 67 l-12 57 -173 0
-174 0 0 -250z"/>
<path d="M4280 530 l0 -250 173 0 173 0 12 58 c7 32 12 62 12 68 0 5 -36 8
-85 6 l-85 -3 0 25 c0 26 1 26 74 26 l73 0 6 38 c4 20 9 51 12 67 l7 30 -86
-4 -86 -3 0 32 0 31 85 -3 c56 -2 85 1 85 8 0 6 -5 36 -11 67 l-12 57 -173 0
-174 0 0 -250z"/>
</g>
</svg>


