<?xml version="1.0" standalone="no"?>
<!DOCTYPE svg PUBLIC "-//W3C//DTD SVG 20010904//EN"
 "http://www.w3.org/TR/2001/REC-SVG-20010904/DTD/svg10.dtd">
<svg version="1.0" xmlns="http://www.w3.org/2000/svg"
 width="721.000000pt" height="637.000000pt" viewBox="0 0 721.000000 637.000000"
 preserveAspectRatio="xMidYMid meet">

<g transform="translate(0.000000,637.000000) scale(0.100000,-0.100000)"
fill="#c4006f" stroke="none">
<path d="M3534 6231 c-38 -9 -72 -33 -344 -235 -281 -208 -255 -189 -705 -522
-214 -158 -565 -419 -780 -579 -455 -340 -588 -439 -860 -639 -110 -81 -208
-157 -217 -168 -35 -40 -16 -105 38 -134 31 -17 35 -17 68 -2 19 9 82 53 140
97 l106 81 2 -1998 c2 -1600 6 -2001 16 -2019 32 -57 -150 -53 2587 -51 l2517
3 29 33 29 32 0 2000 c0 1100 3 2000 8 2000 4 0 61 -41 127 -90 94 -70 127
-90 153 -90 47 0 82 37 82 88 0 46 -8 57 -85 113 -33 24 -219 161 -412 306
-194 144 -362 268 -373 275 -20 13 -20 22 -20 591 0 614 -1 623 -47 642 -10 3
-199 6 -420 6 -309 0 -407 -3 -423 -13 -35 -22 -42 -71 -38 -301 2 -119 1
-217 0 -217 -4 0 -329 238 -861 629 -232 172 -246 179 -317 162z m337 -407
c604 -442 729 -534 893 -654 92 -69 230 -170 305 -225 168 -123 528 -389 745
-550 l161 -120 3 -2018 2 -2017 -2405 0 -2405 0 0 2018 0 2018 27 16 c16 9
229 167 475 350 245 183 526 392 623 463 98 72 354 261 570 420 661 487 700
515 711 511 6 -2 139 -98 295 -212z m1589 -484 c0 -247 -3 -450 -6 -450 -3 0
-65 44 -138 98 -72 54 -195 145 -273 202 l-143 104 -1 226 c0 124 -2 235 -5
248 l-4 22 285 0 285 0 0 -450z"/>
<path d="M1693 4519 c-17 -5 -41 -22 -51 -37 -42 -58 -46 -93 -48 -452 -1
-201 -7 -372 -14 -410 -6 -36 -14 -135 -17 -220 -12 -309 37 -517 158 -677
l40 -53 -110 0 c-125 0 -148 -10 -157 -71 -5 -29 -1 -41 19 -65 l25 -29 1025
-3 c671 -1 1034 1 1051 8 37 14 59 68 45 109 -6 17 -19 36 -29 41 -10 6 -71
10 -135 10 l-117 0 35 41 c50 57 104 175 134 288 23 85 26 117 27 281 0 122
-4 216 -14 275 -12 69 -14 155 -11 370 5 454 -19 570 -127 597 -58 15 -144
-38 -300 -187 -51 -48 -123 -124 -159 -169 -37 -45 -70 -85 -73 -89 -4 -4 -52
1 -108 13 -155 31 -317 26 -502 -15 -21 -5 -32 3 -75 57 -75 94 -180 202 -265
272 -134 112 -182 134 -247 115z m238 -348 c64 -64 141 -151 172 -193 80 -110
91 -113 230 -76 120 32 335 32 462 -1 99 -26 146 -28 174 -9 10 7 54 58 98
113 74 93 275 295 293 295 12 0 16 -186 9 -395 -3 -99 -2 -211 3 -250 25 -196
28 -241 28 -371 1 -174 -17 -271 -71 -381 -47 -98 -117 -174 -191 -208 l-53
-25 -513 0 -513 0 -54 26 c-110 52 -205 191 -247 362 -27 112 -30 342 -5 517
13 91 17 192 17 427 l0 309 23 -12 c12 -7 74 -64 138 -128z"/>
<path d="M2088 3428 c-49 -13 -114 -70 -128 -113 -31 -93 54 -139 135 -75 47
37 70 37 119 0 44 -34 71 -37 103 -15 70 49 15 169 -91 200 -56 17 -84 17
-138 3z"/>
<path d="M2919 3427 c-55 -21 -95 -53 -113 -91 -22 -48 -20 -63 13 -97 37 -37
67 -37 117 1 50 37 75 37 116 0 63 -58 146 -28 135 50 -2 20 -13 49 -22 64
-43 65 -168 102 -246 73z"/>
<path d="M2483 3185 c-36 -16 -53 -42 -53 -83 0 -33 31 -78 60 -87 28 -9 25
-30 -6 -54 -40 -32 -85 -27 -134 14 -69 58 -140 38 -140 -40 0 -42 53 -106
113 -137 49 -24 152 -22 208 5 34 17 37 17 84 -4 70 -31 159 -24 217 17 83 58
114 144 66 178 -36 25 -72 19 -118 -19 -52 -44 -99 -47 -135 -10 -32 31 -31
40 5 55 50 21 74 85 49 132 -24 44 -147 63 -216 33z"/>
<path d="M4590 2694 c-85 -18 -173 -49 -235 -84 -44 -25 -55 -27 -95 -20 -68
14 -179 11 -236 -4 -81 -22 -151 -65 -239 -148 -392 -370 -453 -1047 -106
-1166 57 -20 132 -15 187 13 27 14 50 25 50 25 1 0 4 -38 8 -85 13 -160 66
-308 144 -403 l34 -42 -201 0 c-187 0 -202 -1 -221 -20 -11 -11 -22 -31 -26
-45 -8 -31 12 -82 37 -95 11 -6 388 -10 994 -10 1037 0 1021 -1 1039 45 13 36
6 82 -17 103 -22 21 -32 22 -196 22 l-172 0 40 48 c72 85 117 212 130 366 4
53 10 99 13 101 3 3 24 -2 48 -10 52 -18 118 -19 174 -3 62 19 148 108 175
182 50 136 50 323 1 506 -30 108 -119 282 -194 376 -153 194 -310 275 -501
260 -62 -5 -85 -3 -101 8 -33 24 -148 64 -229 81 -90 18 -217 18 -305 -1z
m295 -179 c33 -9 104 -36 158 -61 96 -45 98 -46 148 -34 72 17 164 8 225 -23
134 -68 291 -303 349 -523 46 -175 20 -370 -56 -409 -120 -63 -204 52 -318
430 -30 102 -57 175 -68 182 -23 18 -84 16 -108 -3 -32 -24 -23 -90 33 -269
74 -236 84 -290 90 -466 4 -135 2 -166 -17 -239 -11 -45 -33 -103 -48 -129
-39 -67 -108 -137 -161 -163 -46 -23 -53 -23 -382 -23 l-335 0 -57 28 c-107
52 -192 176 -223 323 -17 82 -20 286 -4 387 6 40 33 146 61 237 27 91 52 191
55 223 5 51 3 60 -17 82 -31 33 -82 34 -114 2 -14 -14 -30 -51 -41 -97 -47
-197 -127 -406 -181 -470 -70 -82 -163 -77 -215 13 -22 38 -24 53 -24 172 0
152 14 213 79 351 81 170 202 311 312 361 52 24 64 25 143 19 47 -4 105 -9
128 -12 35 -5 51 -1 90 23 63 39 167 81 223 92 74 14 211 12 275 -4z"/>
<path d="M4350 1872 c-52 -53 -52 -181 0 -234 61 -61 165 -21 177 69 15 114
-29 193 -107 193 -32 0 -48 -6 -70 -28z"/>
<path d="M4969 1885 c-70 -38 -78 -203 -12 -255 49 -38 117 -20 148 40 21 40
20 144 -2 181 -27 45 -86 60 -134 34z"/>
<path d="M4608 1525 c-113 -36 -167 -155 -119 -260 23 -51 70 -91 121 -105 35
-9 40 -14 40 -40 0 -79 -98 -114 -189 -66 -62 32 -76 32 -106 1 -52 -51 -18
-124 77 -165 70 -30 160 -25 236 14 52 27 53 27 80 8 92 -64 232 -53 304 24
38 42 44 74 18 107 -26 33 -71 36 -115 7 -45 -30 -91 -26 -126 10 -23 23 -30
37 -27 61 2 26 9 33 42 44 49 17 102 68 117 113 30 90 -16 197 -99 235 -61 27
-188 33 -254 12z"/>
<path d="M2481 1462 c-48 -26 -71 -74 -71 -147 1 -106 57 -185 133 -185 62 0
114 69 124 165 13 127 -90 220 -186 167z"/>
<path d="M2139 1375 c-79 -43 -78 -203 2 -287 31 -33 42 -38 80 -38 79 0 119
51 119 153 0 67 -39 151 -81 172 -35 19 -86 19 -120 0z"/>
<path d="M2790 1252 c-42 -20 -70 -72 -70 -127 0 -55 19 -87 62 -108 30 -15
44 -16 76 -8 114 31 140 204 37 247 -45 18 -63 18 -105 -4z"/>
<path d="M1953 1030 c-76 -31 -73 -163 6 -219 34 -24 114 -31 149 -12 55 29
66 120 22 182 -37 51 -117 73 -177 49z"/>
<path d="M2407 1026 c-103 -38 -177 -140 -197 -273 -19 -119 15 -210 85 -233
53 -17 91 -3 156 56 67 61 87 65 190 39 73 -19 127 -8 159 33 19 23 21 37 18
92 -2 36 -13 83 -23 105 -27 55 -102 128 -165 160 -64 32 -166 42 -223 21z"/>
</g>
</svg>
