<?xml version="1.0" standalone="no"?>
<!DOCTYPE svg PUBLIC "-//W3C//DTD SVG 20010904//EN"
 "http://www.w3.org/TR/2001/REC-SVG-20010904/DTD/svg10.dtd">
<svg version="1.0" xmlns="http://www.w3.org/2000/svg"
 width="1024.000000pt" height="1024.000000pt" viewBox="0 0 1024.000000 1024.000000"
 preserveAspectRatio="xMidYMid meet">

<g transform="translate(0.000000,1024.000000) scale(0.100000,-0.100000)"
fill="#c4006f" stroke="none">
<path d="M5973 9629 c-242 -17 -479 -89 -814 -247 -220 -104 -376 -132 -534
-97 -124 27 -163 -2 -172 -128 -6 -80 14 -181 47 -247 33 -64 115 -155 179
-198 33 -22 66 -42 72 -44 9 -3 8 -20 -4 -69 -44 -180 -52 -272 -52 -614 1
-289 3 -349 23 -485 46 -316 121 -592 212 -785 112 -235 296 -436 489 -535 23
-11 41 -24 41 -28 0 -4 -39 -20 -87 -35 -558 -178 -917 -433 -1215 -862 -104
-150 -187 -321 -265 -550 -66 -193 -253 -940 -253 -1010 0 -45 26 -71 79 -80
35 -6 40 -10 36 -28 -2 -12 -12 -60 -22 -107 l-17 -85 -14 50 c-25 95 -114
356 -153 452 -21 53 -39 101 -39 107 0 6 8 16 19 23 38 24 146 172 188 258 82
170 119 392 94 566 -22 152 -84 309 -178 450 l-45 68 20 83 c48 189 56 460 16
528 -28 49 -70 59 -125 31 -66 -35 -186 -128 -281 -219 l-87 -84 -103 28 c-88
23 -123 28 -238 28 -74 1 -153 -2 -175 -6 l-40 -7 -72 92 c-145 186 -303 327
-366 327 -40 0 -71 -38 -133 -165 -91 -188 -141 -378 -151 -580 -5 -102 -8
-114 -39 -165 -45 -73 -80 -163 -106 -268 -26 -103 -31 -329 -10 -427 29 -134
91 -292 144 -368 17 -24 19 -38 14 -90 -14 -122 -70 -307 -144 -477 -52 -119
-130 -260 -307 -560 -159 -270 -263 -470 -323 -620 -43 -109 -88 -255 -98
-322 -4 -21 -10 -41 -14 -43 -9 -5 -49 110 -72 205 -8 35 -13 117 -13 225 0
306 43 442 299 943 92 182 116 271 97 357 -38 168 -226 185 -410 37 -83 -67
-133 -124 -216 -247 -202 -301 -309 -667 -309 -1065 0 -312 52 -546 177 -795
121 -242 324 -457 545 -577 17 -9 42 -34 56 -56 41 -65 145 -171 221 -224 130
-91 47 -85 1305 -94 608 -5 1129 -7 1159 -6 44 1 65 9 108 37 126 84 154 243
71 408 -16 32 -26 62 -23 66 3 5 56 30 117 56 134 56 261 85 379 85 102 0 138
-12 369 -123 185 -89 317 -140 424 -162 109 -22 271 -23 374 -1 75 16 106 16
325 7 1334 -60 1945 -35 2336 96 203 67 331 142 457 268 207 206 323 527 413
1140 18 123 28 218 59 570 l7 80 65 3 c99 4 97 -1 76 209 -19 198 -72 571
-111 793 -88 498 -209 844 -387 1107 -290 431 -713 692 -1461 903 -72 20 -121
40 -127 49 -31 59 -107 528 -117 718 -6 124 -5 133 13 139 10 3 52 22 93 41
99 47 212 159 263 258 62 122 73 166 72 305 0 107 -3 134 -23 185 -13 33 -34
74 -46 90 -21 28 -22 37 -17 165 5 161 -14 309 -59 462 -179 603 -743 939
-1486 887z m490 -173 c393 -85 684 -310 819 -633 65 -155 88 -265 95 -442 l6
-153 -44 8 c-24 5 -76 9 -115 9 -61 0 -81 -5 -146 -38 -87 -43 -164 -119 -194
-191 -11 -25 -22 -46 -26 -46 -11 0 -76 80 -126 154 -100 151 -158 336 -181
580 -12 124 -15 132 -51 145 -24 8 -47 2 -152 -40 -401 -163 -802 -208 -1166
-133 -217 45 -396 120 -480 202 -60 59 -104 146 -110 220 l-5 55 29 -7 c64
-15 203 -18 270 -7 98 17 226 63 399 143 243 113 387 160 595 192 149 24 431
15 583 -18z m-48 -823 c54 -340 146 -547 346 -772 79 -89 116 -111 154 -91 23
12 55 74 55 106 0 32 65 137 104 168 91 72 190 85 283 38 85 -44 118 -114 117
-247 -2 -141 -51 -255 -156 -357 -67 -66 -131 -102 -219 -123 -34 -7 -66 -18
-71 -23 -6 -6 -20 -54 -33 -108 -82 -345 -280 -648 -535 -819 -219 -146 -474
-215 -694 -187 -391 49 -673 342 -820 852 -65 227 -116 560 -116 762 l0 117
25 -24 c31 -32 63 -31 111 2 54 37 125 42 189 14 78 -34 116 -24 132 37 16 65
-55 113 -180 120 -97 6 -170 -10 -231 -48 l-46 -30 0 108 c0 120 12 237 36
362 23 118 26 122 67 105 38 -16 199 -57 302 -76 111 -22 514 -19 635 4 155
30 444 111 489 137 33 20 50 11 56 -27z m644 -1828 c15 -113 57 -338 78 -429
17 -67 16 -69 -5 -110 -37 -68 -147 -210 -227 -290 -270 -270 -640 -415 -890
-351 -110 29 -210 114 -254 218 -20 46 -51 178 -51 216 0 20 4 21 103 15 185
-11 424 44 597 137 236 128 440 337 567 586 32 61 61 109 64 105 3 -4 11 -47
18 -97z m491 -665 c662 -209 1038 -480 1288 -930 130 -235 257 -693 332 -1200
32 -219 70 -542 64 -552 -3 -4 -75 -8 -160 -8 -84 0 -289 -4 -454 -10 -165 -5
-436 -15 -602 -20 -218 -7 -304 -7 -309 1 -3 6 -9 122 -13 257 -8 309 -16 432
-28 455 -21 41 -103 37 -113 -6 -3 -12 -2 -201 3 -421 l8 -398 23 -19 c17 -14
39 -19 84 -19 l60 0 -7 -87 c-4 -49 -11 -167 -17 -263 -5 -96 -13 -213 -17
-259 l-7 -85 -405 -97 c-1179 -284 -1249 -299 -1491 -306 -198 -7 -259 8 -494
116 -185 85 -279 123 -425 173 l-95 33 -12 55 c-14 66 -49 341 -63 500 -6 63
-13 282 -17 485 -4 293 -2 414 11 580 17 214 52 477 80 599 13 56 14 73 4 94
-30 63 -108 47 -127 -26 -53 -194 -101 -686 -101 -1030 l0 -162 -22 5 c-43 10
-593 113 -670 125 -50 8 -78 17 -78 25 0 27 127 545 174 711 169 592 437 982
865 1259 149 96 466 235 693 303 l66 20 6 -22 c3 -11 6 -32 6 -46 0 -41 29
-140 59 -206 42 -90 137 -187 225 -229 81 -38 197 -65 285 -65 130 0 309 50
464 130 259 132 458 323 630 601 l16 26 58 -17 c32 -10 132 -41 223 -70z
m-5221 -295 c36 -44 93 -115 126 -159 l59 -78 50 6 c207 25 353 16 483 -28
346 -118 610 -452 639 -809 19 -241 -102 -532 -274 -661 -78 -58 -78 -63 6
-251 70 -159 150 -409 198 -620 26 -115 61 -390 90 -707 l17 -188 -81 -85
c-56 -59 -92 -108 -118 -160 -35 -71 -36 -77 -32 -157 4 -74 2 -87 -20 -131
-50 -96 -36 -217 31 -280 l30 -28 -17 -54 c-14 -46 -15 -61 -5 -96 27 -89 104
-134 231 -134 82 0 87 -1 107 -27 57 -71 66 -156 26 -225 -36 -60 -62 -59 -63
4 -2 60 -17 97 -47 113 -31 17 -76 1 -95 -33 -13 -23 -12 -31 7 -76 24 -57 18
-65 -46 -55 l-38 6 -5 83 c-9 135 -63 228 -198 336 l-45 36 -3 244 c-3 162 2
323 13 479 9 129 19 269 22 311 4 62 2 78 -12 92 -34 35 -90 16 -109 -37 -10
-30 -36 -345 -45 -566 -11 -261 0 -553 21 -595 18 -33 44 -59 98 -94 81 -54
120 -127 133 -248 l5 -43 -59 0 c-39 0 -61 4 -64 13 -2 6 -11 37 -19 68 -20
71 -54 109 -97 109 -35 0 -69 -24 -69 -49 0 -9 11 -40 25 -69 14 -30 25 -56
25 -58 0 -2 -45 -4 -100 -4 l-99 0 -20 67 c-54 186 -102 443 -221 1188 -11 72
-25 145 -31 163 -18 54 -68 68 -108 31 -28 -26 -33 19 58 -519 79 -469 122
-694 157 -825 13 -49 24 -93 24 -97 0 -5 -24 -8 -54 -8 l-55 0 -11 57 c-26
127 -93 214 -207 271 -66 33 -171 62 -226 62 -20 0 -37 4 -37 9 0 5 16 34 35
66 70 118 113 310 101 456 -9 108 -46 248 -94 351 -95 205 -328 488 -402 488
-19 0 -60 -48 -60 -71 0 -13 35 -58 95 -121 244 -257 362 -540 326 -788 -15
-111 -44 -193 -107 -305 -60 -108 -74 -159 -51 -189 11 -15 35 -20 118 -28
187 -16 282 -52 332 -125 33 -47 59 -111 52 -123 -3 -5 -228 -8 -548 -7 l-542
2 -50 23 c-139 65 -268 220 -338 407 -92 245 -99 473 -25 767 67 268 152 449
431 913 253 420 362 669 422 960 28 134 25 173 -18 244 -132 222 -173 454
-121 691 18 83 26 102 91 232 48 98 53 114 53 174 0 186 77 486 160 622 l20
33 51 -43 c28 -23 81 -79 118 -123z m1191 -66 c0 -64 -26 -279 -35 -287 -2 -2
-34 20 -72 50 -37 30 -88 68 -111 83 -35 23 -41 31 -30 39 8 6 41 34 74 63 91
79 148 123 162 123 8 0 12 -21 12 -71z m-2393 -1967 c21 -14 30 -54 21 -101
-8 -46 -53 -142 -171 -366 -163 -309 -227 -542 -227 -822 0 -225 36 -376 136
-574 53 -103 54 -108 54 -190 0 -94 22 -249 46 -322 27 -81 8 -75 -98 29 -193
189 -316 423 -380 721 -20 96 -23 135 -23 343 0 203 3 250 23 347 53 263 147
495 275 682 106 154 215 240 327 260 3 0 10 -3 17 -7z m2850 -252 c26 -5 156
-31 287 -56 132 -25 250 -50 262 -54 20 -8 22 -17 28 -117 22 -389 50 -674 76
-772 l9 -34 -62 7 c-155 16 -251 18 -339 6 -116 -15 -273 -60 -335 -94 -25
-15 -48 -25 -50 -23 -3 4 -58 515 -69 647 -5 57 0 89 44 250 27 102 53 200 57
218 7 36 15 38 92 22z m5107 -292 c-39 -534 -97 -909 -184 -1183 -90 -280
-200 -447 -369 -559 -288 -190 -667 -256 -1481 -256 -291 0 -1185 25 -1283 36
-42 5 -95 0 -186 -16 -124 -23 -130 -23 -238 -7 -146 21 -229 50 -463 162
-249 119 -273 127 -395 133 -172 8 -333 -32 -557 -139 -146 -70 -203 -87 -252
-75 -19 5 -26 13 -26 31 0 46 21 79 98 154 59 59 100 88 177 127 154 80 240
103 442 119 49 4 87 12 93 20 18 22 15 73 -6 96 -18 20 -26 21 -139 16 -235
-10 -453 -95 -634 -247 -70 -59 -75 -62 -88 -44 -70 96 45 237 294 363 134 67
321 111 475 111 77 0 98 14 98 65 0 25 -7 39 -27 55 -26 21 -36 22 -128 17
-221 -12 -406 -72 -593 -193 -40 -25 -76 -43 -80 -40 -15 15 46 101 121 172
200 188 534 264 872 199 168 -32 320 -87 605 -218 259 -119 294 -129 469 -135
250 -8 448 27 1209 214 169 41 366 88 437 105 289 68 440 109 454 123 10 11
18 61 27 178 7 90 20 264 29 388 9 124 18 226 20 228 3 3 886 36 1086 40 l126
3 -3 -43z"/>
<path d="M5805 8085 c-48 -17 -85 -57 -85 -91 0 -30 46 -76 69 -69 139 42 198
42 308 -2 74 -30 108 -25 132 18 12 22 12 29 0 54 -21 42 -55 63 -143 85 -93
23 -222 26 -281 5z"/>
<path d="M5390 7800 c-10 -10 -32 -63 -49 -117 -16 -54 -54 -181 -85 -282 -69
-225 -73 -248 -52 -289 45 -87 309 -135 390 -71 33 26 35 80 5 110 -18 18 -28
20 -84 14 -64 -7 -151 0 -173 14 -9 5 -6 26 13 82 14 41 46 144 71 229 24 85
51 172 59 193 20 51 19 100 -3 120 -25 23 -68 21 -92 -3z"/>
<path d="M5039 7659 c-27 -10 -49 -46 -49 -80 0 -35 29 -79 53 -80 70 -4 107
25 107 83 0 36 -26 78 -49 78 -5 0 -15 2 -23 4 -7 3 -25 0 -39 -5z"/>
<path d="M5869 7620 c-9 -5 -22 -23 -29 -39 -23 -56 34 -122 94 -107 33 8 60
63 50 101 -10 42 -77 67 -115 45z"/>
<path d="M6041 6920 c-41 -47 -70 -69 -138 -102 l-86 -43 -121 0 c-111 0 -126
2 -180 28 -72 33 -79 34 -105 1 -45 -57 -11 -113 94 -154 49 -19 80 -24 165
-24 58 0 130 5 160 13 88 21 213 86 274 142 87 80 108 138 64 179 -39 36 -69
26 -127 -40z"/>
<path d="M6941 4894 c-60 -50 -87 -224 -45 -294 18 -31 25 -35 66 -38 37 -2
51 2 76 23 71 59 84 253 21 316 -28 28 -81 25 -118 -7z"/>
<path d="M6651 4705 c-56 -64 -80 -218 -46 -286 31 -59 107 -62 149 -6 38 53
50 96 50 188 1 79 -1 90 -23 113 -37 40 -90 36 -130 -9z"/>
<path d="M7221 4711 c-80 -85 -80 -275 0 -316 39 -21 66 -19 101 7 65 46 90
184 49 275 -33 71 -101 86 -150 34z"/>
<path d="M6933 4456 c-17 -8 -49 -38 -71 -68 -22 -29 -58 -64 -81 -78 -88 -53
-105 -66 -123 -97 -10 -17 -21 -53 -24 -80 -15 -134 133 -228 266 -168 36 16
42 16 86 1 26 -9 62 -16 79 -16 47 0 116 40 148 86 63 90 41 185 -60 251 -46
30 -64 50 -85 93 -24 50 -66 90 -93 90 -5 -1 -24 -7 -42 -14z"/>
<path d="M3247 5046 c-70 -26 -106 -66 -107 -117 0 -37 18 -62 56 -73 14 -4
32 4 61 29 48 40 68 43 124 14 82 -41 140 -4 109 70 -27 66 -160 108 -243 77z"/>
<path d="M2583 5036 c-49 -16 -102 -47 -128 -76 -36 -40 -10 -120 39 -120 12
0 41 14 66 30 54 36 107 39 171 11 33 -15 48 -17 63 -9 29 15 36 28 36 70 0
82 -128 131 -247 94z"/>
<path d="M3030 4753 c-72 -3 -88 -7 -102 -24 -29 -34 -22 -86 17 -151 41 -65
40 -90 -5 -138 -53 -57 -124 -48 -204 25 -27 25 -58 45 -68 45 -30 0 -58 -19
-68 -46 -12 -32 4 -65 57 -116 87 -85 218 -105 317 -49 l53 30 34 -25 c77 -54
182 -38 267 40 76 70 90 120 45 156 -35 28 -65 20 -117 -31 -82 -79 -181 -56
-155 35 5 16 25 52 44 81 60 86 58 178 -3 173 -15 -1 -65 -3 -112 -5z"/>
</g>
</svg>
